<?xml version="1.0" encoding="UTF-8"?>
<svg version="1.1" xmlns="http://www.w3.org/2000/svg" width="64" height="64">
<path d="M0 0 C2.5146075 0.95549055 3.17847241 1.90445022 4.61425781 4.15258789 C5.05253906 4.82612305 5.49082031 5.4996582 5.94238281 6.19360352 C6.38582031 6.9006543 6.82925781 7.60770508 7.28613281 8.33618164 C7.97449219 9.40255859 7.97449219 9.40255859 8.67675781 10.49047852 C9.80706778 12.24481378 10.92300384 14.00839505 12.03613281 15.77368164 C16.87479053 14.08955519 20.09123741 11.42300383 23.95019531 8.13696289 C24.63855469 7.68708008 25.32691406 7.23719727 26.03613281 6.77368164 C27.02613281 7.10368164 28.01613281 7.43368164 29.03613281 7.77368164 C29.54334142 17.07250619 27.75915249 24.00990349 26.03613281 33.77368164 C8.21613281 33.77368164 -9.60386719 33.77368164 -27.96386719 33.77368164 C-31.33886719 14.64868164 -31.33886719 14.64868164 -30.96386719 7.77368164 C-25.30060703 7.77368164 -22.83915194 10.6949278 -18.52246094 14.12133789 C-17.678125 14.66661133 -16.83378906 15.21188477 -15.96386719 15.77368164 C-11.77681397 14.37799724 -10.57651787 11.37882535 -8.40136719 7.77368164 C-3.42477946 -0.3946756 -3.42477946 -0.3946756 0 0 Z " fill="#0C5977" transform="translate(32.9638671875,8.226318359375)"/>
<path d="M0 0 C17.82 0 35.64 0 54 0 C54 2.64 54 5.28 54 8 C50.7995069 10.13366207 49.97637262 10.25180158 46.30078125 10.25878906 C45.34969482 10.26509338 44.3986084 10.27139771 43.41870117 10.27789307 C42.39365479 10.2738446 41.3686084 10.26979614 40.3125 10.265625 C39.25844971 10.26753845 38.20439941 10.2694519 37.1184082 10.27142334 C34.88915773 10.27278475 32.65989932 10.26909138 30.43066406 10.26074219 C27.01349116 10.25004224 23.596844 10.26063916 20.1796875 10.2734375 C18.01562384 10.2721159 15.8515605 10.26955349 13.6875 10.265625 C12.66245361 10.26967346 11.63740723 10.27372192 10.58129883 10.27789307 C9.6302124 10.27158875 8.67912598 10.26528442 7.69921875 10.25878906 C6.86221436 10.25719788 6.02520996 10.25560669 5.1628418 10.25396729 C3 10 3 10 0 8 C0 5.36 0 2.72 0 0 Z " fill="#0C5977" transform="translate(5,46)"/>
</svg>
